<svg width="25" height="25" fill="none" xmlns="http://www.w3.org/2000/svg"><path d="M10.364 19.055L7.418 22a3.124 3.124 0 11-4.42-4.419l5.893-5.893a3.124 3.124 0 014.419 0 1.042 1.042 0 001.473-1.473 5.208 5.208 0 00-7.365 0L1.525 16.11a5.208 5.208 0 107.366 7.365l2.946-2.946a1.042 1.042 0 10-1.473-1.473z" fill="#1E95D9"/><path d="M23.474 1.525a5.209 5.209 0 00-7.366 0L12.573 5.06a1.042 1.042 0 001.473 1.473l3.535-3.534A3.125 3.125 0 0122 7.417l-6.482 6.481a3.124 3.124 0 01-4.418 0 1.042 1.042 0 00-1.474 1.474 5.207 5.207 0 007.365 0l6.482-6.482a5.208 5.208 0 000-7.365z" fill="#1E95D9"/></svg>