<svg width="26" height="34" viewBox="0 0 26 34" fill="none" xmlns="http://www.w3.org/2000/svg">
<path d="M25.9701 28.1411C25.8946 23.5203 21.1701 22.1551 17.7205 21.1583C17.318 21.042 16.9309 20.9301 16.5682 20.8184V18.9122C17.2734 18.4702 17.8914 17.9013 18.3899 17.2377H20.4913C21.5196 17.2377 22.3562 16.401 22.3562 15.3727V13.1152C22.4809 12.8246 22.5501 12.5047 22.5501 12.1689V11.4668C22.5501 11.1313 22.4809 10.8117 22.3562 10.5213V9.35668C22.3562 4.19742 18.1589 0 12.9998 0C7.84156 0 3.64513 4.19742 3.64513 9.35674V10.488C3.64513 10.4969 3.64613 10.5055 3.64646 10.5143C3.51989 10.8067 3.44936 11.1286 3.44936 11.4669V12.169C3.44936 13.4963 4.52834 14.5761 5.85454 14.5761H6.40333C6.78344 16.3988 7.90245 17.9534 9.43133 18.9119V20.8184C9.06855 20.9301 8.68153 21.042 8.27904 21.1583C4.82936 22.1551 0.104934 23.5204 0.0293632 28.1411C0.0292968 28.1447 0.0292969 28.1483 0.0292969 28.152V33.3359C0.0292969 33.7027 0.326665 34 0.693362 34H2.66218C3.02888 34 3.32625 33.7027 3.32625 33.3359C3.32625 32.9692 3.02888 32.6719 2.66218 32.6719H1.35736V28.1575C1.38532 26.5453 2.12588 25.3368 3.68783 24.3543C4.71853 23.706 5.97859 23.2441 7.22066 22.8577L8.82511 25.9837C9.00394 26.3321 9.46181 26.4505 9.7872 26.231L10.5026 25.7484L11.1168 28.0569L10.0645 32.6718H8.62529C8.25859 32.6718 7.96122 32.9691 7.96122 33.3359C7.96122 33.7026 8.25859 33.9999 8.62529 33.9999H25.3061C25.6728 33.9999 25.9702 33.7026 25.9702 33.3359V28.1519C25.9702 28.1483 25.9702 28.1447 25.9701 28.1411ZM17.3518 22.4342C17.3955 22.4468 17.44 22.4597 17.4841 22.4725L16.3361 24.7113L14.1878 23.2627L16.0081 22.0349C16.431 22.168 16.8807 22.298 17.3518 22.4342ZM13.0002 24.0637L14.3318 24.9617L13.6883 27.3806H12.3112L11.6679 24.9624L13.0002 24.0637ZM13.0001 22.4618L10.7594 20.9509V19.5529C11.4607 19.8009 12.2145 19.937 12.9997 19.937C13.7848 19.937 14.5387 19.8014 15.24 19.5533V20.9509L13.0001 22.4618ZM18.4098 9.4782C18.4007 9.47242 18.3917 9.46665 18.3826 9.46087C17.02 8.59347 15.8431 7.84434 13.9992 8.37193C13.982 8.37685 13.965 8.38243 13.9484 8.38867C13.5574 8.53549 13.202 8.67236 12.8581 8.80471C10.7581 9.61307 9.61156 10.0545 7.58961 9.9977V9.46592C7.58961 6.48267 10.0166 4.05564 12.9997 4.05564C15.9828 4.05564 18.4098 6.48267 18.4098 9.46592V9.4782H18.4098ZM21.0281 15.3727C21.0281 15.6687 20.7873 15.9095 20.4913 15.9095H19.1679C19.3548 15.4859 19.4996 15.0397 19.5962 14.576H20.145C20.4568 14.576 20.7545 14.5157 21.0282 14.4072V15.3727H21.0281ZM21.222 12.1689C21.222 12.7639 20.7389 13.2479 20.145 13.2479H19.7374C19.7375 13.2314 19.738 10.3897 19.738 10.3897H20.145C20.7389 10.3897 21.2221 10.8729 21.2221 11.4668V12.1689H21.222ZM5.85454 13.248C5.26067 13.248 4.7775 12.7639 4.7775 12.169V11.4669C4.7775 10.8729 5.2606 10.3898 5.85454 10.3898H6.26155C6.26155 10.3898 6.26208 13.2315 6.26221 13.248H5.85454ZM6.27397 9.06157H5.85448C5.54402 9.06157 5.24752 9.12133 4.97486 9.22891C5.04345 4.86069 8.61666 1.32813 12.9998 1.32813C17.3841 1.32813 20.9583 4.86109 21.0264 9.22964C20.7533 9.1216 20.4561 9.06157 20.145 9.06157H19.7255C19.5156 5.53352 16.5794 2.72751 12.9998 2.72751C9.42004 2.72751 6.48381 5.53359 6.27397 9.06157ZM7.62959 13.8446C7.62952 13.844 7.62939 13.8433 7.62932 13.8426C7.60415 13.6313 7.58968 13.4166 7.58968 13.1986V11.3258C9.86164 11.3811 11.2169 10.8597 13.3352 10.0443C13.6689 9.91582 14.0137 9.78307 14.3894 9.64183C15.6438 9.29167 16.3656 9.75127 17.6694 10.5813C17.8956 10.7253 18.1438 10.8832 18.4098 11.0453V13.1986C18.4098 14.1862 18.1426 15.1119 17.6786 15.9096H12.9998C12.6331 15.9096 12.3357 16.2069 12.3357 16.5737C12.3357 16.9404 12.6331 17.2377 12.9998 17.2377H16.5939C15.6375 18.0898 14.3783 18.6089 12.9998 18.6089C10.2353 18.6088 7.95 16.5242 7.62959 13.8446ZM9.66495 24.7114L8.51572 22.4724C8.55968 22.4597 8.60404 22.4468 8.64773 22.4342C9.11882 22.298 9.56853 22.1679 9.99154 22.0348L11.8125 23.2628L9.66495 24.7114ZM11.4267 32.6719L12.3304 28.7087H13.6693L14.5744 32.6719H11.4267ZM24.6421 32.6719H15.9367L14.8827 28.0568L15.4972 25.7475L16.2143 26.231C16.5398 26.4505 16.9977 26.3321 17.1765 25.9835L18.7791 22.8578C20.0211 23.2442 21.2811 23.7061 22.3117 24.3543C23.8736 25.3367 24.6143 26.5453 24.6422 28.1575V32.6719H24.6421Z" fill="#5C5C5C"/>
<path d="M22.0195 29.3514H18.6729C18.3062 29.3514 18.0088 29.6487 18.0088 30.0154C18.0088 30.3822 18.3062 30.6795 18.6729 30.6795H22.0195C22.3862 30.6795 22.6836 30.3822 22.6836 30.0154C22.6836 29.6487 22.3863 29.3514 22.0195 29.3514Z" fill="#5C5C5C"/>
<path d="M5.64404 32.6719C5.27735 32.6719 4.97998 32.9692 4.97998 33.3359C4.97998 33.7027 5.27735 34 5.64404 34H5.6459C6.0126 34 6.30897 33.7027 6.30897 33.3359C6.30897 32.9692 6.01074 32.6719 5.64404 32.6719Z" fill="#5C5C5C"/>
</svg>
