<svg width="34" height="34" viewBox="0 0 34 34" fill="none" xmlns="http://www.w3.org/2000/svg">
<g clip-path="url(#clip0)">
<path d="M33.9316 13.0675C33.7616 12.5446 33.3159 12.1881 32.7683 12.1373L22.3734 11.1732L20.3129 6.38839C20.204 6.13578 19.9112 6.01904 19.6585 6.12794C19.4059 6.23672 19.2893 6.5297 19.3981 6.78224L21.5756 11.8387C21.6477 12.0061 21.8055 12.1208 21.987 12.1376L32.6764 13.129C32.8885 13.1486 32.9624 13.3077 32.9844 13.3752C33.0063 13.4427 33.04 13.6148 32.88 13.7554L24.8147 20.8406C24.6777 20.961 24.6175 21.1464 24.6576 21.3243L27.018 31.7968C27.0649 32.0047 26.9364 32.1241 26.8789 32.1658C26.8215 32.2075 26.6684 32.293 26.4851 32.184L17.2544 26.7031C17.0977 26.6101 16.9025 26.6101 16.7459 26.7031L7.51525 32.184C7.33197 32.2931 7.17884 32.2075 7.1214 32.1658C7.06396 32.1241 6.93546 32.0047 6.98228 31.7969L8.2007 26.391C8.26119 26.1227 8.09265 25.8561 7.82437 25.7957C7.55563 25.7352 7.28954 25.9037 7.22904 26.172L6.01062 31.5779C5.88976 32.1144 6.09104 32.6484 6.53589 32.9717C6.98075 33.2948 7.55091 33.3213 8.02366 33.0405L17.0001 27.7104L25.9765 33.0405C26.1943 33.1698 26.4327 33.234 26.6699 33.234C26.9478 33.234 27.2242 33.146 27.4642 32.9717C27.9091 32.6484 28.1103 32.1144 27.9894 31.5779L25.6941 21.3938L33.5373 14.5038C33.9505 14.1409 34.1015 13.5905 33.9316 13.0675Z" fill="#5C5C5C"/>
<path d="M19.3973 4.26293L18.2441 1.5849C18.0265 1.07982 17.5498 0.766113 16.9999 0.766113C16.45 0.766113 15.9733 1.07988 15.7558 1.58497L11.6266 11.1732L1.23191 12.1373C0.684388 12.1881 0.238603 12.5445 0.0686031 13.0675C-0.101331 13.5904 0.0497437 14.1408 0.462923 14.5038L8.3059 21.3938L7.70884 24.0428C7.64835 24.3112 7.81688 24.5777 8.08517 24.6382C8.12209 24.6465 8.15888 24.6505 8.19513 24.6505C8.42291 24.6505 8.62837 24.4933 8.6805 24.2618L9.34257 21.3242C9.38268 21.1463 9.32238 20.9608 9.18545 20.8405L1.12028 13.7554C0.96024 13.6149 0.993974 13.4427 1.01595 13.3753C1.03787 13.3078 1.11171 13.1487 1.32388 13.129L12.0132 12.1377C12.1946 12.1209 12.3525 12.0062 12.4246 11.8388L16.6706 1.97896C16.7549 1.78332 16.929 1.76214 16.9999 1.76214C17.0709 1.76214 17.245 1.78326 17.3293 1.97889L18.4826 4.65686C18.5915 4.90946 18.8843 5.02614 19.137 4.9173C19.3895 4.80853 19.5061 4.51554 19.3973 4.26293Z" fill="#5C5C5C"/>
</g>
<defs>
<clipPath id="clip0">
<rect width="34" height="34" fill="white"/>
</clipPath>
</defs>
</svg>
