<svg width="34" height="34" viewBox="0 0 34 34" fill="none" xmlns="http://www.w3.org/2000/svg">
<path d="M29.6987 4.50599H26.8312V1.63857C26.8312 0.737307 26.0938 0 25.193 0H4.3011C3.3999 0 2.6626 0.737307 2.6626 1.63857V27.8554C2.6626 28.7566 3.3999 29.4939 4.30117 29.4939H7.16865V32.3614C7.16865 33.2626 7.90563 34 8.80722 34H22.7345C23.6353 34 24.9101 33.4945 25.5659 32.8772L30.1432 28.5686C30.7999 27.9513 31.3365 26.7085 31.3365 25.8073L31.3373 6.14469C31.3372 5.24336 30.5999 4.50599 29.6987 4.50599ZM7.16852 6.14462V28.265H4.3011C4.07911 28.265 3.89151 28.0774 3.89151 27.8554V1.63857C3.89151 1.41658 4.07911 1.22898 4.3011 1.22898H25.1931C25.4147 1.22898 25.6027 1.41658 25.6027 1.63857V4.50605H8.80709C7.90549 4.50605 7.16852 5.24336 7.16852 6.14462ZM29.3009 27.6739L24.7236 31.9821C24.6299 32.0702 24.5078 32.1566 24.3729 32.2389V28.4698C24.3729 28.1884 24.4864 27.9352 24.6736 27.7468C24.8625 27.5596 25.1156 27.4458 25.3971 27.4458H29.4955C29.432 27.5321 29.3669 27.6116 29.3009 27.6739ZM30.1075 25.8071C30.1075 25.9288 30.0853 26.0697 30.0517 26.2167H25.397C24.1538 26.2192 23.1465 27.2265 23.144 28.4698V32.7214C22.9977 32.7509 22.8568 32.7709 22.7344 32.7709H8.80709V32.771C8.58463 32.771 8.3975 32.5834 8.3975 32.3614V6.14456C8.3975 5.92256 8.5847 5.73497 8.80709 5.73497H29.6986C29.9206 5.73497 30.1082 5.92256 30.1082 6.14456L30.1075 25.8071Z" fill="#E72A00"/>
<path d="M25.1931 10.2409H13.3137C12.9741 10.2409 12.6992 10.5158 12.6992 10.8554C12.6992 11.195 12.9741 11.4698 13.3137 11.4698H25.1931C25.5323 11.4698 25.8076 11.195 25.8076 10.8554C25.8076 10.5158 25.5323 10.2409 25.1931 10.2409Z" fill="#E72A00"/>
<path d="M25.1931 18.4337H13.3137C12.9741 18.4337 12.6992 18.7086 12.6992 19.0482C12.6992 19.3878 12.9741 19.6626 13.3137 19.6626H25.1931C25.5323 19.6626 25.8076 19.3878 25.8076 19.0482C25.8076 18.7085 25.5323 18.4337 25.1931 18.4337Z" fill="#E72A00"/>
<path d="M19.8678 22.5301H13.3137C12.9741 22.5301 12.6992 22.8049 12.6992 23.1445C12.6992 23.4841 12.9741 23.759 13.3137 23.759H19.8678C20.207 23.759 20.4819 23.4841 20.4819 23.1445C20.4819 22.8049 20.207 22.5301 19.8678 22.5301Z" fill="#E72A00"/>
<path d="M25.1931 14.3373H13.3137C12.9741 14.3373 12.6992 14.6121 12.6992 14.9517C12.6992 15.2913 12.9741 15.5662 13.3137 15.5662H25.1931C25.5323 15.5662 25.8076 15.2913 25.8076 14.9517C25.8076 14.6121 25.5323 14.3373 25.1931 14.3373Z" fill="#E72A00"/>
</svg>
