<svg width="34" height="34" viewBox="0 0 34 34" fill="none" xmlns="http://www.w3.org/2000/svg">
<g clip-path="url(#clip0)">
<path d="M20.3203 22.9766H19.6562V14.3438C19.6562 13.977 19.359 13.6797 18.9922 13.6797H13.6797C13.3129 13.6797 13.0156 13.977 13.0156 14.3438V17C13.0156 17.3668 13.3129 17.6641 13.6797 17.6641H14.3438V22.9766H13.6797C13.3129 22.9766 13.0156 23.2738 13.0156 23.6406V26.2969C13.0156 26.6637 13.3129 26.9609 13.6797 26.9609H20.3203C20.6871 26.9609 20.9844 26.6637 20.9844 26.2969V23.6406C20.9844 23.2738 20.6871 22.9766 20.3203 22.9766ZM19.6562 25.6328H14.3438V24.3047H15.0078C15.3746 24.3047 15.6719 24.0074 15.6719 23.6406V17C15.6719 16.6332 15.3746 16.3359 15.0078 16.3359H14.3438V15.0078H18.3281V23.6406C18.3281 24.0074 18.6257 24.3047 18.9922 24.3047H19.6562V25.6328Z" fill="#5C5C5C"/>
<path d="M17 12.3516C18.4646 12.3516 19.6562 11.1599 19.6562 9.69531C19.6562 8.23074 18.4646 7.03906 17 7.03906C15.5354 7.03906 14.3438 8.23074 14.3438 9.69531C14.3438 11.1599 15.5354 12.3516 17 12.3516ZM17 8.36719C17.7323 8.36719 18.3281 8.96303 18.3281 9.69531C18.3281 10.4276 17.7323 11.0234 17 11.0234C16.2677 11.0234 15.6719 10.4276 15.6719 9.69531C15.6719 8.96303 16.2677 8.36719 17 8.36719Z" fill="#5C5C5C"/>
<path d="M16.9995 0C7.83703 0 -0.000459323 7.82271 -0.000459323 17C-0.000459323 20.1348 0.897841 23.4686 2.41247 25.9903L0.033522 33.1261C-0.0458542 33.3645 0.0161422 33.6278 0.19409 33.8055C0.372817 33.9842 0.636366 34.0451 0.873717 33.9658L8.00954 31.5871C10.5309 33.102 13.8647 34 16.9995 34C26.1644 34 33.9995 26.1763 33.9995 17C33.9995 7.83516 26.1761 0 16.9995 0V0ZM16.9995 32.6719C13.9923 32.6719 10.796 31.7845 8.44922 30.2981C8.28294 30.1928 8.07568 30.165 7.88373 30.2291L1.71365 32.2859L3.77043 26.1158C3.83372 25.9265 3.8083 25.7189 3.70143 25.5503C2.21507 23.2038 1.32767 20.0072 1.32767 17C1.32767 8.50493 8.50447 1.32812 16.9995 1.32812C25.4946 1.32812 32.6714 8.50493 32.6714 17C32.6714 25.4951 25.4946 32.6719 16.9995 32.6719Z" fill="#5C5C5C"/>
</g>
<defs>
<clipPath id="clip0">
<rect width="34" height="34" fill="white"/>
</clipPath>
</defs>
</svg>
