<svg width="34" height="34" viewBox="0 0 34 34" fill="none" xmlns="http://www.w3.org/2000/svg">
<g clip-path="url(#clip0)">
<path d="M21.2778 4.00482H8.21387C7.93875 4.00482 7.71582 4.22775 7.71582 4.50287C7.71582 4.77799 7.93875 5.00092 8.21387 5.00092H21.2778C21.5529 5.00092 21.7758 4.77799 21.7758 4.50287C21.7758 4.22775 21.5529 4.00482 21.2778 4.00482Z" fill="#1E1E1E"/>
<path d="M21.2778 8.97125H8.21387C7.93875 8.97125 7.71582 9.19418 7.71582 9.4693C7.71582 9.74442 7.93875 9.96735 8.21387 9.96735H21.2778C21.5529 9.96735 21.7758 9.74442 21.7758 9.4693C21.7758 9.19418 21.5529 8.97125 21.2778 8.97125Z" fill="#1E1E1E"/>
<path d="M21.2778 13.9377H8.21387C7.93875 13.9377 7.71582 14.1606 7.71582 14.4357C7.71582 14.7109 7.93875 14.9338 8.21387 14.9338H21.2778C21.5529 14.9338 21.7758 14.7109 21.7758 14.4357C21.7758 14.1606 21.5529 13.9377 21.2778 13.9377Z" fill="#1E1E1E"/>
<path d="M24.6659 17.5703C20.7569 17.5703 17.5767 20.7504 17.5767 24.6595C17.5767 28.5685 20.7568 31.7487 24.6659 31.7487C28.5749 31.7487 31.7551 28.5685 31.7551 24.6595C31.7551 20.7504 28.5749 17.5703 24.6659 17.5703ZM24.6659 30.7526C21.3061 30.7526 18.5728 28.0193 18.5728 24.6595C18.5728 21.2997 21.3061 18.5663 24.6659 18.5663C28.0256 18.5663 30.759 21.2997 30.759 24.6595C30.759 28.0193 28.0255 30.7526 24.6659 30.7526Z" fill="#1E1E1E"/>
<path d="M24.6655 20.5949C24.9406 20.5949 25.1636 20.372 25.1636 20.0969V19.8687C25.1636 19.5936 24.9406 19.3707 24.6655 19.3707C24.3904 19.3707 24.1675 19.5936 24.1675 19.8687V20.0969C24.1675 20.372 24.3904 20.5949 24.6655 20.5949Z" fill="#1E1E1E"/>
<path d="M27.7009 20.9198L27.5395 21.0811C27.345 21.2756 27.3449 21.5909 27.5393 21.7854C27.7336 21.9798 28.049 21.9801 28.2436 21.7856L28.405 21.6243C28.5996 21.4298 28.5997 21.1144 28.4052 20.92C28.2107 20.7253 27.8953 20.7254 27.7009 20.9198Z" fill="#1E1E1E"/>
<path d="M28.73 24.6596C28.73 24.9347 28.9529 25.1577 29.228 25.1577H29.4562C29.7313 25.1577 29.9542 24.9347 29.9542 24.6596C29.9542 24.3845 29.7313 24.1616 29.4562 24.1616H29.228C28.9529 24.1616 28.73 24.3846 28.73 24.6596Z" fill="#1E1E1E"/>
<path d="M20.1027 24.1616H19.8745C19.5994 24.1616 19.3765 24.3845 19.3765 24.6596C19.3765 24.9347 19.5994 25.1577 19.8745 25.1577H20.1027C20.3778 25.1577 20.6007 24.9347 20.6007 24.6596C20.6007 24.3845 20.3777 24.1616 20.1027 24.1616Z" fill="#1E1E1E"/>
<path d="M28.2436 27.5336C28.0491 27.3391 27.7337 27.3391 27.5393 27.5338C27.3449 27.7283 27.345 28.0437 27.5395 28.2381L27.7009 28.3994C27.8952 28.5937 28.2107 28.5939 28.4052 28.3992C28.5997 28.2047 28.5996 27.8894 28.405 27.6949L28.2436 27.5336Z" fill="#1E1E1E"/>
<path d="M24.6655 28.7242C24.3904 28.7242 24.1675 28.9471 24.1675 29.2222V29.4504C24.1675 29.7255 24.3904 29.9484 24.6655 29.9484C24.9406 29.9484 25.1636 29.7255 25.1636 29.4504V29.2222C25.1636 28.9472 24.9406 28.7242 24.6655 28.7242Z" fill="#1E1E1E"/>
<path d="M21.0865 27.5337L20.9252 27.695C20.7307 27.8895 20.7307 28.2048 20.9252 28.3993C21.1198 28.5938 21.435 28.5938 21.6296 28.3993L21.7909 28.238C21.9854 28.0435 21.9854 27.7282 21.7909 27.5337C21.5963 27.3393 21.281 27.3393 21.0865 27.5337Z" fill="#1E1E1E"/>
<path d="M21.6295 20.9198C21.435 20.7254 21.1197 20.7254 20.9252 20.9198C20.7307 21.1144 20.7307 21.4297 20.9252 21.6242L21.0865 21.7855C21.2811 21.98 21.5963 21.9799 21.7909 21.7855C21.9854 21.5909 21.9854 21.2756 21.7909 21.0811L21.6295 20.9198Z" fill="#1E1E1E"/>
<path d="M26.023 24.1615H25.1636V22.0309C25.1636 21.7558 24.9406 21.5329 24.6655 21.5329C24.3904 21.5329 24.1675 21.7558 24.1675 22.0309V24.6596C24.1675 24.9347 24.3904 25.1576 24.6655 25.1576H26.023C26.2981 25.1576 26.521 24.9347 26.521 24.6596C26.521 24.3844 26.2981 24.1615 26.023 24.1615Z" fill="#1E1E1E"/>
<path d="M32.2416 19.2062C32.0807 18.9831 31.7695 18.9328 31.5463 19.0936C31.3232 19.2545 31.2728 19.5657 31.4336 19.7889C32.4609 21.2136 33.0039 22.8979 33.0039 24.6595C33.0039 29.2574 29.2632 32.9981 24.6654 32.9981C20.0675 32.9981 16.3268 29.2574 16.3268 24.6595C16.3268 20.0617 20.0675 16.321 24.6654 16.321C26.6928 16.321 28.6473 17.0578 30.1687 18.3956C30.3751 18.577 30.69 18.557 30.8716 18.3503C31.0532 18.1438 31.033 17.829 30.8264 17.6474C29.1887 16.2074 27.1028 15.3899 24.9273 15.329V7.54498H29.1802C29.7107 7.54498 30.1423 7.11334 30.1423 6.58282V3.1113C30.1423 1.36143 28.6928 0.00567627 27.088 0.00567627H15.3825C15.1074 0.00567627 14.8845 0.228602 14.8845 0.503723C14.8845 0.778844 15.1074 1.00177 15.3825 1.00177H24.7604C24.2463 1.55613 23.9312 2.29742 23.9312 3.1113V15.3537C21.2535 15.563 18.8895 16.907 17.321 18.9041H8.21386C7.93873 18.9041 7.71581 19.127 7.71581 19.4021C7.71581 19.6773 7.93873 19.9002 8.21386 19.9002H16.6382C16.0733 20.8493 15.6716 21.9063 15.4729 23.0326H5.16534V2.57732C5.16534 1.7086 5.87217 1.00177 6.7409 1.00177H13.3912C13.6663 1.00177 13.8893 0.778844 13.8893 0.503723C13.8893 0.228602 13.6663 0.00567627 13.3912 0.00567627H6.7409C5.32286 0.00567627 4.16925 1.15929 4.16925 2.57732V23.0326H0.498047C0.222926 23.0326 0 23.2555 0 23.5306V24.496C0 26.8034 1.8773 28.6806 4.18472 28.6806H5.7887C6.06382 28.6806 6.28675 28.4577 6.28675 28.1826C6.28675 27.9075 6.06382 27.6845 5.7887 27.6845H4.18472C2.42648 27.6845 0.996094 26.2541 0.996094 24.496V24.0287H15.3525C15.3384 24.2372 15.3307 24.4475 15.3307 24.6595C15.3307 25.7178 15.5081 26.7354 15.834 27.6845H7.78002C7.5049 27.6845 7.28198 27.9075 7.28198 28.1826C7.28198 28.4577 7.5049 28.6806 7.78002 28.6806H16.2422C17.7472 31.8206 20.9571 33.9943 24.6653 33.9943C29.8125 33.9943 33.9999 29.8067 33.9999 24.6596C34 22.6875 33.392 20.8017 32.2416 19.2062ZM29.1462 3.1113V6.54888H24.9273V3.1113C24.9273 1.94806 25.8736 1.00177 27.0368 1.00177C28.1999 1.00177 29.1462 1.94806 29.1462 3.1113Z" fill="#1E1E1E"/>
</g>
<defs>
<clipPath id="clip0">
<rect width="34" height="34" fill="white"/>
</clipPath>
</defs>
</svg>
