<svg width="16" height="16" viewBox="0 0 16 16" fill="none" xmlns="http://www.w3.org/2000/svg">
<path d="M3.42246 7.62785L7.51549 11.7209C7.79456 11.9999 8.16665 11.9999 8.44572 11.7209L12.5387 7.62785C12.8178 7.34878 12.8178 6.97669 12.5387 6.69762C12.2597 6.41855 11.7946 6.41855 11.6085 6.69762L8.72479 9.58134L8.72479 0.65111C8.72479 0.279017 8.44572 -5.28282e-05 8.07363 -5.28607e-05C7.70154 -5.28933e-05 7.42247 0.279017 7.42247 0.65111L7.42247 9.58134L4.53874 6.69762C4.44572 6.6046 4.25968 6.51157 4.07363 6.51157C3.88758 6.51157 3.70154 6.6046 3.60851 6.69762C3.1434 6.97669 3.14339 7.34878 3.42246 7.62785Z" fill="black"/>
<path d="M15.3488 9.97681C14.9767 9.97681 14.6977 10.2559 14.6977 10.628V14.4419H1.39535V10.628C1.39535 10.2559 1.11628 9.97681 0.744186 9.97681C0.372093 9.97681 0 10.2559 0 10.628V15.1861C0 15.5582 0.27907 15.8373 0.651163 15.8373H15.3488C15.7209 15.8373 16 15.5582 16 15.1861V10.628C16 10.2559 15.7209 9.97681 15.3488 9.97681Z" fill="black"/>
</svg>
