<svg class='star' viewBox="0 0 34 34" xmlns="http://www.w3.org/2000/svg">
<g clip-path="url(#clip0)">
<path d="M33.9314 13.0675C33.7614 12.5446 33.3158 12.1881 32.7681 12.1373L22.3732 11.1732L20.3127 6.38839C20.2039 6.13578 19.911 6.01904 19.6583 6.12794C19.4057 6.23672 19.2891 6.5297 19.3979 6.78224L21.5754 11.8387C21.6475 12.0061 21.8054 12.1208 21.9869 12.1376L32.6762 13.129C32.8883 13.1486 32.9622 13.3077 32.9842 13.3752C33.0061 13.4427 33.0399 13.6148 32.8798 13.7554L24.8146 20.8406C24.6776 20.961 24.6174 21.1464 24.6575 21.3243L27.0179 31.7968C27.0647 32.0047 26.9363 32.1241 26.8788 32.1658C26.8214 32.2075 26.6683 32.293 26.4849 32.184L17.2542 26.7031C17.0976 26.6101 16.9024 26.6101 16.7458 26.7031L7.5151 32.184C7.33182 32.2931 7.17869 32.2075 7.12124 32.1658C7.0638 32.1241 6.93531 32.0047 6.98212 31.7969L8.20054 26.391C8.26104 26.1227 8.0925 25.8561 7.82422 25.7957C7.55547 25.7352 7.28938 25.9037 7.22889 26.172L6.01047 31.5779C5.88961 32.1144 6.09088 32.6484 6.53574 32.9717C6.9806 33.2948 7.55076 33.3213 8.02351 33.0405L16.9999 27.7104L25.9763 33.0405C26.1941 33.1698 26.4325 33.234 26.6698 33.234C26.9477 33.234 27.2241 33.146 27.464 32.9717C27.9089 32.6484 28.1101 32.1144 27.9893 31.5779L25.6939 21.3938L33.5371 14.5038C33.9503 14.1409 34.1013 13.5905 33.9314 13.0675Z"/>
<path d="M19.3973 4.26293L18.244 1.5849C18.0264 1.07982 17.5498 0.766113 16.9998 0.766113C16.45 0.766113 15.9732 1.07988 15.7557 1.58497L11.6265 11.1732L1.23183 12.1373C0.684312 12.1881 0.238527 12.5445 0.0685268 13.0675C-0.101407 13.5904 0.0496674 14.1408 0.462847 14.5038L8.30582 21.3938L7.70877 24.0428C7.64827 24.3112 7.81681 24.5777 8.08509 24.6382C8.12201 24.6465 8.1588 24.6505 8.19506 24.6505C8.42283 24.6505 8.62829 24.4933 8.68042 24.2618L9.34249 21.3242C9.3826 21.1463 9.3223 20.9608 9.18537 20.8405L1.1202 13.7554C0.960164 13.6149 0.993898 13.4427 1.01588 13.3753C1.03779 13.3078 1.11164 13.1487 1.3238 13.129L12.0131 12.1377C12.1946 12.1209 12.3524 12.0062 12.4245 11.8388L16.6706 1.97896C16.7548 1.78332 16.9289 1.76214 16.9999 1.76214C17.0709 1.76214 17.245 1.78326 17.3292 1.97889L18.4825 4.65686C18.5914 4.90946 18.8843 5.02614 19.1369 4.9173C19.3894 4.80853 19.506 4.51554 19.3973 4.26293Z"/>
</g>
<defs>
<clipPath id="clip0">
<rect fill="white"/>
</clipPath>
</defs>
</svg>
